<svg width="40" height="40" viewBox="0 0 40 40" fill="none" xmlns="http://www.w3.org/2000/svg">
<g clip-path="url(#clip0_1_483)">
<g filter="url(#filter0_d_1_483)">
<path d="M35 26.8182V18.4959C35 11.3482 35 7.77435 32.8033 5.55384C30.6066 3.33334 27.0711 3.33334 20 3.33334C12.9289 3.33334 9.3934 3.33334 7.1967 5.55384C5 7.77435 5 11.3482 5 18.4959V26.8182C5 31.9791 5 34.5596 6.22351 35.6872C6.80702 36.2249 7.54358 36.5628 8.32819 36.6526C9.97337 36.8408 11.8946 35.1416 15.7369 31.7431C17.4354 30.2408 18.2846 29.4897 19.2671 29.2918C19.751 29.1943 20.249 29.1943 20.7329 29.2918C21.7154 29.4897 22.5646 30.2408 24.2631 31.7431C28.1054 35.1416 30.0266 36.8408 31.6718 36.6526C32.4564 36.5628 33.193 36.2249 33.7765 35.6872C35 34.5596 35 31.9791 35 26.8182Z" stroke-width="3" shape-rendering="crispEdges"/>
</g>
<path d="M25 10H15" stroke-width="3" stroke-linecap="round"/>
</g>
<defs>
<filter id="filter0_d_1_483" x="-0.5" y="1.83334" width="41" height="44.3334" filterUnits="userSpaceOnUse" color-interpolation-filters="sRGB">
<feFlood flood-opacity="0" result="BackgroundImageFix"/>
<feColorMatrix in="SourceAlpha" type="matrix" values="0 0 0 0 0 0 0 0 0 0 0 0 0 0 0 0 0 0 127 0" result="hardAlpha"/>
<feOffset dy="4"/>
<feGaussianBlur stdDeviation="2"/>
<feComposite in2="hardAlpha" operator="out"/>
<feColorMatrix type="matrix" values="0 0 0 0 0 0 0 0 0 0 0 0 0 0 0 0 0 0 0.25 0"/>
<feBlend mode="normal" in2="BackgroundImageFix" result="effect1_dropShadow_1_483"/>
<feBlend mode="normal" in="SourceGraphic" in2="effect1_dropShadow_1_483" result="shape"/>
</filter>
<clipPath id="clip0_1_483">
<rect width="40" height="40" fill="white"/>
</clipPath>
</defs>
</svg>
